<svg width="310" height="310" viewBox="0 0 310 310" fill="none" xmlns="http://www.w3.org/2000/svg">
<path fill-rule="evenodd" clip-rule="evenodd" d="M238.575 128.751C238.646 128.751 238.717 160.89 238.717 271.687H195.185L195.256 172.498L201.715 166.867C205.296 163.835 211.966 157.512 216.6 152.92C221.234 148.329 228.044 141.052 231.695 136.722C235.346 132.39 238.435 128.838 238.575 128.751ZM173.28 189.477C173.35 189.39 173.42 207.929 173.42 271.687H130.592V215.379L134.664 213.126C136.841 211.913 143.089 208.362 148.495 205.33C153.901 202.211 161.624 197.36 165.697 194.588C169.769 191.815 173.14 189.477 173.28 189.477ZM107.984 225.861C108.615 225.774 108.827 230.885 108.827 271.687H65.2959L65.6469 240.328L77.5827 236.516C84.1825 234.523 93.45 231.231 98.2947 229.326C103.139 227.507 107.493 225.861 107.984 225.861ZM41.986 245.785C43.5306 245.698 43.5306 245.785 43.5306 271.687H0V261.724C0 252.108 0.0702055 251.763 1.61484 251.416C2.45737 251.156 7.72316 250.549 13.34 250.03C18.9568 249.423 27.3119 248.297 31.9458 247.431C36.5797 246.565 41.0733 245.871 41.986 245.785Z" fill="#1D1B19"/>
<path d="M303.36 22.344C305.236 16.6374 307.201 11.6549 307.737 11.2923C308.273 10.9308 308.809 10.5681 308.988 10.5681C309.077 10.5681 308.994 61.1 308.994 272.008L258.01 273.167L257.647 116.803L257.525 108.771C260.652 104.514 266.558 96.0793 269.596 91.6396C272.543 87.2012 277.01 79.8638 279.689 75.3353C282.28 70.8968 286.12 63.7407 288.176 59.4836C290.319 55.2253 293.802 47.5264 295.946 42.2726C298.18 37.0187 301.485 28.0506 303.36 22.344Z" fill="#FF0E02"/>
</svg>
