<svg width="44" height="36" viewBox="0 0 44 36" fill="none" xmlns="http://www.w3.org/2000/svg">
<g clip-path="url(#clip0_1818_13139)">
<path fill-rule="evenodd" clip-rule="evenodd" d="M33.6822 15.1582C33.6922 15.1582 33.7021 19.8445 33.7021 36.0003H27.5564L27.5663 21.537L28.4782 20.716C28.9838 20.2739 29.9254 19.3519 30.5797 18.6824C31.2339 18.0129 32.1954 16.9519 32.7108 16.3204C33.2263 15.6887 33.6624 15.1708 33.6822 15.1582ZM24.4638 24.0129C24.4737 24.0002 24.4836 26.7035 24.4836 36.0003H18.437V27.7898L19.0119 27.4612C19.3192 27.2844 20.2015 26.7666 20.9647 26.3245C21.7279 25.8697 22.8182 25.1624 23.3932 24.7581C23.9681 24.3539 24.444 24.0129 24.4638 24.0129ZM15.2452 29.3182C15.3344 29.3055 15.3642 30.0508 15.3642 36.0003H9.21851L9.26806 31.4277L10.9532 30.8719C11.8849 30.5813 13.1933 30.1012 13.8773 29.8234C14.5613 29.5582 15.1759 29.3182 15.2452 29.3182ZM5.9276 32.2234C6.14567 32.2107 6.14567 32.2234 6.14567 36.0003H0V34.5476C0 33.1455 0.00991164 33.0951 0.227985 33.0445C0.346933 33.0066 1.09036 32.9181 1.88336 32.8424C2.67634 32.754 3.85591 32.5897 4.51013 32.4634C5.16435 32.3371 5.79874 32.236 5.9276 32.2234Z" fill="#081423"/>
<path d="M43.9404 -0.429739C44.2052 -1.22476 44.4826 -1.9189 44.5584 -1.96943C44.634 -2.01979 44.7096 -2.07031 44.735 -2.07031C44.7476 -2.07031 44.7602 6.85179 44.7602 36.2349L36.8783 36.1718L36.8027 12.5055L37.6097 11.4329C38.0511 10.8398 38.7447 9.84283 39.1735 9.22431C39.5897 8.60596 40.2203 7.58374 40.5985 6.95284C40.9643 6.33449 41.5065 5.33753 41.7966 4.74444C42.0992 4.15118 42.591 3.0786 42.8936 2.34665C43.209 1.6147 43.6756 0.365285 43.9404 -0.429739Z" fill="#EB0000"/>
</g>
<defs>
<clipPath id="clip0_1818_13139">
<rect width="44" height="36" fill="white"/>
</clipPath>
</defs>
</svg>
